<svg xmlns="http://www.w3.org/2000/svg" version="1.1" xmlns:xlink="http://www.w3.org/1999/xlink" xmlns:svgjs="http://svgjs.dev/svgjs" viewBox="0 0 600 600"><path d="M3.1437125205993652,407.784423828125C2.245508929093679,427.6946055094401,-9.880239129066467,441.76646423339844,1.347305417060852,447.3053894042969C12.574849963188171,452.8443145751953,52.245506306489304,444.6107889811198,70.50897979736328,441.0179748535156C88.77245328823726,437.42516072591144,94.91018295288086,426.94611104329425,110.92814636230469,425.7485046386719C126.94610977172852,424.5508982340495,153.892209370931,427.09580993652344,166.61676025390625,433.83233642578125C179.3413111368815,440.56886291503906,177.8443120320638,457.1856282552083,187.27545166015625,466.16766357421875C196.7065912882487,475.1496988932292,211.82635243733725,487.87424723307294,223.20359802246094,487.72454833984375C234.58084360758463,487.57484944661456,247.9041976928711,475.1497090657552,255.53892517089844,465.26947021484375C263.1736526489258,455.3892313639323,261.52693430582684,434.7305399576823,269.011962890625,428.443115234375C276.49699147542316,422.1556905110677,288.17364501953125,422.15570068359375,300.4490966796875,427.544921875C312.72454833984375,432.93414306640625,328.2934163411458,451.04790751139325,342.6646728515625,460.7784423828125C357.0359293619792,470.50897725423175,368.7125651041667,480.68860880533856,386.6766357421875,485.9281311035156C404.6407063802083,491.1676534016927,435.9281361897786,495.9580891927083,450.4490966796875,492.215576171875C464.9700571695964,488.4730631510417,472.00599161783856,475.1496988932292,473.8023986816406,463.4730529785156C475.5988057454427,451.79640706380206,466.76646423339844,432.0359395345052,461.2275390625,422.15570068359375C455.68861389160156,412.2754618326823,439.07183837890625,412.12575276692706,440.56884765625,404.1916198730469C442.06585693359375,396.2574869791667,457.93414306640625,381.7365315755208,470.2095947265625,374.5509033203125C482.48504638671875,367.3652750651042,501.19761149088544,367.5149790445964,514.2215576171875,361.0778503417969C527.2455037434896,354.6407216389974,541.3173421223959,345.05987040201825,548.353271484375,335.9281311035156C555.3892008463541,326.796391805013,561.0778503417969,314.5209452311198,556.4371337890625,306.28741455078125C551.7964172363281,298.0538838704427,536.3772379557291,289.9700571695964,520.5089721679688,286.5269470214844C504.6407063802083,283.0838368733724,473.0538838704427,292.215581258138,461.2275390625,285.6287536621094C449.4011942545573,279.04192606608075,447.60479227701825,260.47903696695965,449.5509033203125,247.0059814453125C451.49701436360675,233.53292592366537,461.6766662597656,218.2634735107422,472.9042053222656,204.79042053222656C484.1317443847656,191.31736755371094,505.9879913330078,176.49700419108072,516.9161376953125,166.16766357421875C527.8442840576172,155.83832295735678,538.4730834960938,151.64671198527017,538.4730834960938,142.8143768310547C538.4730834960938,133.9820416768392,530.2394968668619,118.86227671305339,516.9161376953125,113.17365264892578C503.592778523763,107.48502858479817,471.7065785725911,115.41915893554688,458.5329284667969,108.68263244628906C445.3592783610026,101.94610595703125,441.46705118815106,84.58084042867024,437.8742370605469,72.7544937133789C434.2814229329427,60.92814699808756,440.1197560628255,47.15569019317627,436.9760437011719,37.724552154541016C433.83233133951825,28.29341411590576,430.5389099121094,22.0059890349706,419.011962890625,16.167665481567383C407.4850158691406,10.329341928164165,386.6766357421875,5.3892217477162685,367.8143615722656,2.694610834121704C348.95208740234375,-7.947285984855057e-8,323.2035878499349,0.4491018056869507,305.83831787109375,0C288.4730478922526,-0.4491018056869507,278.44309997558594,-0.598802407582601,263.62274169921875,0C248.80238342285156,0.598802407582601,230.5389200846354,2.5449102719624834,216.91616821289062,3.5928144454956055C203.29341634114584,4.6407186190287275,197.60479354858398,5.53892199198405,181.88623046875,6.2874250411987305C166.16766738891602,7.035928090413411,141.01796340942383,7.335329691569011,122.60478973388672,8.083832740783691C104.19161605834961,8.832335789998373,88.47305647532146,10.179641087849935,71.40718841552734,10.778443336486816C54.34132035573323,11.377245585123697,32.185629745324455,9.131735960642496,20.20958137512207,11.67664623260498C8.233533004919687,14.221556504567465,2.095808466275533,13.473054726918539,-0.4491018056869507,26.04790496826172C-2.9940120776494346,38.6227552096049,3.7425149480501814,69.0119743347168,4.940119743347168,87.12574768066406C6.137724538644155,105.23952102661133,7.0359281698862715,119.61078389485677,6.736526966094971,134.7305450439453C6.43712576230367,149.85030619303384,3.1437125205993652,162.87425486246744,3.1437125205993652,177.8443145751953C3.1437125205993652,192.8143742879232,6.13772455851237,210.3293482462565,6.736526966094971,224.5509033203125C7.335329373677571,238.7724583943685,6.736526966094971,251.34730021158853,6.736526966094971,263.17364501953125C6.736526966094971,274.99998982747394,6.736526966094971,284.73052978515625,6.736526966094971,295.50897216796875C6.736526966094971,306.28741455078125,7.335329373677571,309.13172403971356,6.736526966094971,327.84429931640625C6.13772455851237,346.55687459309894,4.041916112105052,387.8742421468099,3.1437125205993652,407.784423828125C2.245508929093679,427.6946055094401,-9.880239129066467,441.76646423339844,1.347305417060852,447.3053894042969" fill="url(&quot;#SvgjsLinearGradient1002&quot;)"></path><defs><linearGradient id="SvgjsLinearGradient1002"><stop stop-color="hsl(37, 65%, 67%)" offset="0"></stop><stop stop-color="hsl(316, 76%, 59%)" offset="1"></stop></linearGradient></defs></svg>