<svg xmlns="http://www.w3.org/2000/svg" version="1.1" xmlns:xlink="http://www.w3.org/1999/xlink" xmlns:svgjs="http://svgjs.dev/svgjs" viewBox="0 0 600 600"><path d="M164.8203582763672,125.74850463867188C196.40718523661295,96.25748761494954,207.18563079833984,59.431138356526695,250.1497039794922,61.97604751586914C293.11377716064453,64.5209566752116,373.0539016723633,98.80238914489746,422.60479736328125,141.01795959472656C472.1556930541992,183.23353004455566,530.5389099121094,263.77246348063153,547.455078125,315.26947021484375C564.3712463378906,366.76647694905597,544.3113861083984,415.56886800130206,524.101806640625,450C503.89222717285156,484.43113199869794,480.6886215209961,509.2814127604167,426.1976013183594,521.8562622070312C371.70658111572266,534.4311116536459,255.83831914265951,524.2514851888021,197.1556854248047,525.4490966796875C138.47305170694986,526.6467081705729,102.99401410420735,544.7604929606119,74.10179901123047,529.0419311523438C45.209583918253585,513.3233693440756,26.04790433247884,479.49102274576825,23.80239486694336,431.1377258300781C21.55688540140788,382.784428914388,37.125748316446945,289.8203531901042,60.62874221801758,238.92214965820312C84.13173611958821,188.0239461263021,133.23353131612143,155.2395216623942,164.8203582763672,125.74850463867188C196.40718523661295,96.25748761494954,207.18563079833984,59.431138356526695,250.1497039794922,61.97604751586914" fill="url(&quot;#SvgjsLinearGradient1002&quot;)"></path><defs><linearGradient id="SvgjsLinearGradient1002"><stop stop-color="hsl(316, 73%, 52%)" offset="0"></stop><stop stop-color="hsl(37, 99%, 67%)" offset="1"></stop></linearGradient></defs></svg>