<svg xmlns="http://www.w3.org/2000/svg" version="1.1" xmlns:xlink="http://www.w3.org/1999/xlink" xmlns:svgjs="http://svgjs.dev/svgjs" viewBox="0 0 600 600"><path d="M2.245508909225464,431.1377258300781C1.6467065215110779,452.54491170247394,-11.526946465174357,436.3772379557292,1.347305417060852,440.1197509765625C14.22155729929606,443.8622639973958,42.36527254184087,450.5987904866536,79.49102020263672,453.5928039550781C116.61676786343256,456.5868174235026,174.25149408976236,460.1796366373698,224.10179138183594,458.0838317871094C273.9520886739095,455.98802693684894,329.64070383707684,446.1077931722005,378.5928039550781,441.0179748535156C427.5449040730794,435.92815653483075,486.37726338704425,440.5688781738281,517.8143920898438,427.544921875C549.2515207926432,414.5209655761719,574.2515055338541,383.9820251464844,567.215576171875,362.8742370605469C560.1796468098959,341.7664489746094,497.4551035563151,318.8622639973958,475.59881591796875,300.898193359375C453.7425282796224,282.9341227213542,432.33533732096356,274.99999237060547,436.0778503417969,255.08981323242188C439.8203633626302,235.17963409423828,486.82634989420575,203.74250666300455,498.05389404296875,181.43711853027344C509.28143819173175,159.13173039754233,508.83233642578125,138.17365137736002,503.443115234375,121.25748443603516C498.05389404296875,104.34131749471028,480.98802693684894,93.41317049662273,465.71856689453125,79.94011688232422C450.44910685221356,66.46706326802571,422.15569559733075,53.443114360173546,411.82635498046875,40.41916275024414C401.49701436360675,27.395211140314736,417.8143819173177,8.233533143997192,403.7425231933594,1.7964072227478027C389.67066446940106,-4.640718698501587,351.79640197753906,1.6467066208521526,327.39520263671875,1.7964072227478027C302.99400329589844,1.9461078246434529,276.9461034138997,2.5449102322260537,257.3353271484375,2.694610834121704C237.72455088297525,2.8443114360173545,235.17964680989584,2.8443114360173545,209.7305450439453,2.694610834121704C184.28144327799478,2.5449102322260537,135.32934029897055,2.2455090284347534,104.64071655273438,1.7964072227478027C73.95209280649821,1.347305417060852,43.11377229293187,-0.598802407582601,25.59880256652832,0C8.083832840124767,0.598802407582601,3.293413201967875,-8.982036113739014,-0.4491018056869507,5.389221668243408C-4.191616813341776,19.76047945022583,2.994011918703715,58.23353584607442,3.1437125205993652,86.22754669189453C3.2934131224950156,114.22155753771465,0.598802407582601,148.50298690795898,0.4491018056869507,173.35328674316406C0.2994012037913004,198.20358657836914,1.4970059196154275,212.27545420328775,2.245508909225464,235.329345703125C2.9940118988355002,258.3832372029622,4.940119743347168,279.0419057210286,4.940119743347168,311.6766357421875C4.940119743347168,344.3113657633464,2.84431129693985,409.7305399576823,2.245508909225464,431.1377258300781C1.6467065215110779,452.54491170247394,-11.526946465174357,436.3772379557292,1.347305417060852,440.1197509765625" fill="url(&quot;#SvgjsLinearGradient1000&quot;)" transform="matrix(1,0,0,1,-5.684341886080802e-14,0)" stroke-width="10" stroke="hsl(30, 100%, 40%)" stroke-opacity="0.05"></path><defs><linearGradient id="SvgjsLinearGradient1000"><stop stop-color="hsl(37, 85%, 58%)" offset="0"></stop><stop stop-color="hsl(316, 71%, 59%)" offset="1"></stop></linearGradient><radialGradient id="SvgjsRadialGradient1001"><stop stop-color="hsl(340, 45%, 50%)" offset="0"></stop><stop stop-color="hsl(340, 45%, 80%)" offset="1"></stop></radialGradient></defs></svg>